<svg id="pre_order" xmlns="http://www.w3.org/2000/svg" viewBox="0 0 162.5 152.84"><defs><style>.cls-1{fill:#ea5e5e;}.cls-1,.cls-2,.cls-3{stroke:#000;stroke-miterlimit:10;stroke-width:0.55px;}.cls-2{fill:#e6e6e6;}.cls-3{fill:#c1272d;}</style></defs><title>announce</title><path class="cls-1" d="M35.77,113.06,22.9,107.72A22.11,22.11,0,0,1,9.52,90.58l-.94-6.25a6.54,6.54,0,0,1,3.18-6.62l18.1-10.53a6.54,6.54,0,0,1,9.75,4.68l5.13,34.19A6.54,6.54,0,0,1,35.77,113.06Z" transform="translate(-8.23 -7.31)"/><polygon class="cls-2" points="141.61 122.07 40.23 104.39 32.87 55.35 125.73 16.34 141.61 122.07"/><path class="cls-1" d="M146,7.26h10.18a5.32,5.32,0,0,1,5.32,5.32V135.2a6.87,6.87,0,0,1-6.87,6.87H146a0,0,0,0,1,0,0V7.26a0,0,0,0,1,0,0Z" transform="translate(-17.61 16.35) rotate(-8.54)"/><path class="cls-3" d="M42.4,112.09,60,155.18s-2.6,3.52-10.27,4.68-13.26-46.58-13.26-46.58Z" transform="translate(-8.23 -7.31)"/></svg>