<svg id="cart" xmlns="http://www.w3.org/2000/svg" viewBox="0 0 150.6 153.67"><defs><style>.cls-1,.cls-2,.cls-3,.cls-4,.cls-5{fill:none;stroke:#000;stroke-miterlimit:10;}.cls-1,.cls-2{stroke-width:4.8px;}.cls-2,.cls-3,.cls-4,.cls-5{stroke-linecap:round;}.cls-3{stroke-width:4.07px;}.cls-4{stroke-width:3.93px;}.cls-5{stroke-width:3.76px;}</style></defs><title>cart</title><path class="cls-1" d="M117.84,113.91H47.22a11.25,11.25,0,0,1-11.13-9.6l-10-67.56A8,8,0,0,1,34,27.59h97.65a6.93,6.93,0,0,1,6.84,8.07l-11.79,70.76A9,9,0,0,1,117.84,113.91Z" transform="translate(-23.6 -10.6)"/><path class="cls-2" d="M171.8,13.2s-16-3.2-20.78,16c-3.88,15.51-13,67.62-16.33,87A8.83,8.83,0,0,1,126,123.5H37.52s-4.8,0-4.8-6.39" transform="translate(-23.6 -10.6)"/><ellipse class="cls-2" cx="31.5" cy="136.09" rx="15.99" ry="15.19"/><ellipse class="cls-2" cx="91.45" cy="136.09" rx="15.99" ry="15.19"/><line class="cls-3" x1="28.11" y1="41.79" x2="35.87" y2="73.68"/><line class="cls-4" x1="54.9" y1="40.9" x2="54.9" y2="74.9"/><line class="cls-5" x1="80.4" y1="42.4" x2="77.4" y2="73.4"/></svg>