<svg id="contact" xmlns="http://www.w3.org/2000/svg" viewBox="0 0 146.79 158.18"><defs><style>.cls-1{fill:none;stroke:#000;stroke-linecap:round;stroke-miterlimit:10;stroke-width:4px;}</style></defs><title>contact</title><path class="cls-1" d="M160.05,129.58a16.24,16.24,0,0,1,.34,11.61,27.91,27.91,0,0,1-7.94,11.93,16.74,16.74,0,0,1-5,2.92,93.85,93.85,0,0,1-9.55,3h0a95.61,95.61,0,0,1-23.54,2.9c-53.11,0-96.08-44.91-95.78-98a104.22,104.22,0,0,1,1.35-18.35A73.44,73.44,0,0,0,21,36.65c.05-1.54.31-3.17.31-4.62,0-9.79,10-18.94,15.36-22.07,4.08-2.36,7.1-2.24,11-2.24A27.2,27.2,0,0,1,51.83,8c12.6,1.83,26.4,12.07,22.24,24C69.64,44.7,62.24,56.34,47.67,56.34c-.67,0-.74-.08-1.39-.13-6.94,5.56,22.29,66.94,59,77.14a2.79,2.79,0,0,0,3.46-2.49c1.12-11.19,13.89-20.08,26.39-20.36C140.1,110.4,154.81,116.92,160.05,129.58Z" transform="translate(-16.51 -5.72)"/><path class="cls-1" d="M131.74,146.45a19.78,19.78,0,0,1-8.3,2.68A66.94,66.94,0,0,0,131.74,146.45Z" transform="translate(-16.51 -5.72)"/></svg>