<svg xmlns="http://www.w3.org/2000/svg" viewBox="0 0 162.64 152.33"><defs><style>.cls-1,.cls-2,.cls-3{fill:none;stroke:#000;stroke-miterlimit:10;}.cls-1,.cls-2{stroke-linecap:round;}.cls-1{stroke-width:3.87px;}.cls-2{stroke-width:3.74px;}.cls-3{stroke-width:3.33px;}</style></defs><title>entrepre</title><g id="Layer_5" data-name="Layer 5"><ellipse class="cls-1" cx="83.36" cy="49.17" rx="22.31" ry="23.5"/><path class="cls-2" d="M90.82,150.5H49.27A11.24,11.24,0,0,1,38.53,136c4.09-13.35,10.3-32,14.83-38.35a22.21,22.21,0,0,1,7.75-6.81,18.09,18.09,0,0,1,16.77.08l12.94,6.73H93l12.18-6.33a19.41,19.41,0,0,1,21.31,2.06,22.57,22.57,0,0,1,4,4.28c4.34,6.07,10.21,23.42,14.3,36.61a12.56,12.56,0,0,1-12,16.28h-42Z" transform="translate(-8.43 -12.34)"/><path class="cls-3" d="M133.26,30.14c-28-2-35.56-10-39.7-15.26a2,2,0,0,0-3.43.2C82.18,29.9,46.6,30.14,46.6,30.14L10.1,29.9V163H169.4V29.9Z" transform="translate(-8.43 -12.34)"/></g></svg>