<svg id="organic" xmlns="http://www.w3.org/2000/svg" viewBox="0 0 137.44 137.34"><defs><style>.cls-1{fill:#39b54a;}.cls-2,.cls-3,.cls-4{fill:#fff;}.cls-2,.cls-3{stroke:#fff;stroke-miterlimit:10;}.cls-2{stroke-width:0.85px;}.cls-3{stroke-linecap:round;stroke-width:0.84px;}</style></defs><title>organic</title><circle class="cls-1" cx="71.26" cy="68.12" r="57"/><path class="cls-1" d="M21.91,84.5c.37-7.5,5.7-13.1,9.2-19.36C34,60,34.83,54.42,36.18,48.81,38.1,40.88,41.73,36,49.77,33.7c5.5-1.54,11.29-2.11,16.5-4.61,6.13-2.94,11.34-8.31,18.13-9.8,7.63-1.68,13.93,3.53,20,7.33,5.31,3.33,10.68,4.73,16.74,6.09,7.21,1.61,13.61,4,16.36,11.45,2.11,5.75,2.41,12,4.78,17.67,2.45,5.84,6.94,10.55,9.38,16.39,3.39,8.12-.74,14.62-5.06,21.3a46.54,46.54,0,0,0-6.68,15.82c-1.52,6.83-2.65,14.27-9.38,18-5.57,3-12.3,3.19-18.25,5.19s-10.6,6.11-16.05,9C88.51,151.57,82,149.65,75,145.2c-6-3.85-11.27-6.74-18.32-8.31-8.09-1.8-16-3.37-19.13-12-2.21-6-2.48-12.6-5.15-18.49C29,99,22.33,93,21.91,84.5c-.1-2-3.27-2-3.17,0,.37,7.43,4.79,13,8.53,19.1,4.12,6.72,4.51,14.15,7,21.44,1.9,5.62,5.28,9.71,10.81,12,7,2.91,14.79,2.85,21.48,6.58,6.16,3.44,11.81,8.72,19.11,9.5,7,.75,12.88-3.19,18.48-6.82,6.61-4.28,13.09-5.7,20.6-7.6,6.17-1.56,11.68-4.27,14.63-10.18,3.16-6.32,3.15-13.66,5.86-20.14,2.82-6.75,8.49-12.09,10.41-19.26,1.76-6.6-.79-12.58-4.27-18.13-1.93-3.08-4.14-6-5.69-9.33C143.92,58,143.23,54,142.35,50,141,44,139.19,37.69,133.79,34c-5.67-3.9-13-4.21-19.38-6.1-7.26-2.14-12.67-7.67-19.59-10.52-6.37-2.63-12.4-1.5-18.28,1.79-3.84,2.15-7.31,4.93-11.25,6.9S57.21,28.72,53,29.65C46.18,31.18,39.51,33.34,36,39.89c-3.88,7.17-3.46,15.8-7.25,23S19.16,76,18.74,84.5C18.64,86.54,21.81,86.54,21.91,84.5Z" transform="translate(-18.74 -15.88)"/><path class="cls-2" d="M122.45,62.38S115.64,97.46,86.27,98Z" transform="translate(-18.74 -15.88)"/><path class="cls-2" d="M122,61.8s-35.28,5.66-36.8,35Z" transform="translate(-18.74 -15.88)"/><path class="cls-2" d="M59.78,51.8S91.64,68,84.1,96.39Z" transform="translate(-18.74 -15.88)"/><path class="cls-2" d="M59.09,52.1s-4.25,35.48,23.55,45Z" transform="translate(-18.74 -15.88)"/><path class="cls-1" d="M84,97" transform="translate(-18.74 -15.88)"/><circle class="cls-3" cx="65.76" cy="81.62" r="2"/><path class="cls-4" d="M82.65,99.1c.25,7.74-2.14,17.68-11.17,19-1.9.27-1.09,3.17.8,2.89,10.31-1.49,13.66-12.87,13.37-21.88-.06-1.93-3.06-1.93-3,0Z" transform="translate(-18.74 -15.88)"/></svg>