<svg id="profile" xmlns="http://www.w3.org/2000/svg" viewBox="0 0 157.94 165.39"><defs><style>.cls-1,.cls-2{fill:none;stroke:#000;stroke-linecap:round;stroke-miterlimit:10;}.cls-1{stroke-width:5.51px;}.cls-2{stroke-width:5.31px;}</style></defs><title>profile</title><ellipse class="cls-1" cx="79.11" cy="36.18" rx="31.72" ry="33.42"/><path class="cls-2" d="M88.45,170.24H29.37a16,16,0,0,1-15.28-20.67c5.82-19,14.65-45.51,21.1-54.54a31.59,31.59,0,0,1,11-9.68,25.72,25.72,0,0,1,23.85.11L88.45,95h3.13l17.32-9A27.6,27.6,0,0,1,139.22,89,32.1,32.1,0,0,1,144.86,95c6.17,8.64,14.52,33.31,20.33,52.06a17.86,17.86,0,0,1-17.06,23.15H88.45Z" transform="translate(-10.72 -7.51)"/></svg>