<svg id="Layer_4" data-name="Layer 4" xmlns="http://www.w3.org/2000/svg" viewBox="0 0 140.53 113.58"><defs><style>.cls-1{fill:#8c6239;}.cls-1,.cls-4{stroke:#000;}.cls-1,.cls-4,.cls-5{stroke-miterlimit:10;}.cls-1,.cls-5{stroke-width:3px;}.cls-2,.cls-5{fill:#fff;}.cls-3{fill:#a86f3d;}.cls-4{fill:#c69c6d;stroke-width:0.78px;}.cls-5{stroke:#fff;}.cls-6{fill:#ccc;}</style></defs><title>sweet</title><path class="cls-1" d="M159,88c2.79,31.63-30.67,57.5-68.5,57.5S17.63,119.45,22,88c5.65-40.68,34.15-37.56,68-38.5C126,48.5,155.42,47.43,159,88Z" transform="translate(-20.13 -33.42)"/><ellipse class="cls-2" cx="71.37" cy="16.08" rx="60.5" ry="12.5"/><path class="cls-3" d="M40.43,58S23,74.5,24.5,87c1.09,9.15,79.1,13.87,86.13,13.5,8-.42,37.14-2.37,45.83-3.79a1.24,1.24,0,0,0,.54-2.22C135.23,78.72,75.62,74.23,66.32,68,57.36,62,40.43,58,40.43,58Z" transform="translate(-20.13 -33.42)"/><path class="cls-4" d="M153.5,53.14c0,7.66-28,13.86-62.5,13.86S28.5,60.79,28.5,53.14s28-13.86,62.5-13.86S153.5,45.48,153.5,53.14ZM91,33.81c-34.52,0-62.5,6.21-62.5,13.86s28,13.86,62.5,13.86,62.5-6.21,62.5-13.86S125.52,33.81,91,33.81Z" transform="translate(-20.13 -33.42)"/><path class="cls-5" d="M133,85.5c-.12,6.63-.69,15-4,15s-8-8.37-8-15,2.89-16.84,6-18C130.35,66.25,133.32,67.61,133,85.5Z" transform="translate(-20.13 -33.42)"/><path class="cls-6" d="M140,50.5c.76,4.38-38.45,9.1-54.5,7-12.87-1.68-37.5-1-33.5-5,2.73-2.73,20.76-6.53,33.5-9C101,40.5,139.34,46.69,140,50.5Z" transform="translate(-20.13 -33.42)"/></svg>